<svg width="62" height="62" viewBox="0 0 62 62" fill="none" xmlns="http://www.w3.org/2000/svg">
<path d="M31 62C48.1208 62 62 48.1208 62 31C62 13.8792 48.1208 0 31 0C13.8792 0 0 13.8792 0 31C0 48.1208 13.8792 62 31 62Z" fill="white"/>
<path d="M31.1103 59.7995C24.4749 59.797 18.0456 57.494 12.9178 53.2828C7.79005 49.0717 4.28097 43.2129 2.98844 36.7046C1.69591 30.1963 2.69989 23.4412 5.82935 17.5902C8.95881 11.7391 14.0201 7.15413 20.151 4.6163C26.2819 2.07847 33.103 1.74483 39.4523 3.67223C45.8016 5.59962 51.2862 9.66881 54.9717 15.1865C58.6573 20.7042 60.3157 27.3291 59.6645 33.9324C59.0133 40.5358 56.0927 46.7091 51.4004 51.4006C48.7417 54.0726 45.5794 56.1908 42.0966 57.6325C38.6138 59.0742 34.8797 59.8107 31.1103 59.7995V59.7995ZM31.1103 2.88794C25.5284 2.88794 20.0718 4.54316 15.4307 7.6443C10.7895 10.7454 7.17213 15.1532 5.03603 20.3102C2.89993 25.4672 2.34103 31.1418 3.43 36.6165C4.51898 42.0911 7.20692 47.1199 11.1539 51.0669C15.1009 55.0139 20.1297 57.7018 25.6043 58.7908C31.079 59.8798 36.7536 59.3209 41.9106 57.1848C47.0676 55.0487 51.4754 51.4313 54.5765 46.7901C57.6776 42.149 59.3329 36.6924 59.3329 31.1105C59.3245 23.6281 56.3483 16.4545 51.0574 11.1638C45.7664 5.87301 38.5927 2.89715 31.1103 2.88911V2.88794Z" fill="#3072AC"/>
<path d="M31.1109 59.7998C25.4367 59.7998 19.89 58.1173 15.1721 54.9649C10.4542 51.8125 6.77711 47.3319 4.60571 42.0897C2.43431 36.8474 1.86616 31.079 2.97314 25.5139C4.08011 19.9488 6.81247 14.8369 10.8247 10.8247C14.8369 6.81247 19.9488 4.08011 25.5139 2.97314C31.079 1.86617 36.8474 2.43431 42.0897 4.60571C47.3319 6.77711 51.8125 10.4542 54.9649 15.1721C58.1173 19.89 59.7999 25.4367 59.7999 31.1109C59.7904 38.7168 56.7648 46.0084 51.3866 51.3866C46.0084 56.7648 38.7168 59.7904 31.1109 59.7998V59.7998ZM31.1109 6.03746C26.1517 6.03746 21.3039 7.50802 17.1805 10.2632C13.0571 13.0184 9.8433 16.9344 7.94551 21.516C6.04772 26.0977 5.55117 31.1393 6.51866 36.0031C7.48614 40.867 9.87422 45.3348 13.3809 48.8414C16.8875 52.3481 21.3553 54.7362 26.2192 55.7037C31.0831 56.6711 36.1246 56.1746 40.7063 54.2768C45.288 52.379 49.204 49.1652 51.9591 45.0418C54.7143 40.9184 56.1849 36.0706 56.1849 31.1114C56.177 24.4638 53.5328 18.0906 48.8322 13.39C44.1316 8.68929 37.7585 6.04491 31.1109 6.03687V6.03746Z" fill="#F59440"/>
<path d="M50.8165 43.6803L45.2715 40.1349C47.5834 36.5017 48.4122 32.1197 47.5869 27.8932C46.7617 23.6668 44.3453 19.9184 40.8366 17.4217C37.3279 14.9251 32.9947 13.8708 28.7311 14.4763C24.4676 15.0818 20.5993 17.3011 17.9245 20.6759L12.7759 16.5817C16.5041 11.8975 21.8869 8.82159 27.8152 7.98746C33.7436 7.15333 39.7661 8.62456 44.6421 12.0981C49.5182 15.5716 52.8764 20.7828 54.0251 26.6584C55.1738 32.5339 54.0254 38.6262 50.8165 43.6803Z" fill="#3072AC"/>
<path d="M23.4691 53.2128C20.0871 52.0447 17.0183 50.116 14.4991 47.5751C11.9798 45.0342 10.0775 41.9489 8.93842 38.557C7.79938 35.1651 7.45408 31.557 7.92914 28.0106C8.4042 24.4642 9.68692 21.0741 11.6785 18.1016L17.1422 21.7715C15.7139 23.908 14.7946 26.3435 14.4549 28.8909C14.1152 31.4382 14.3641 34.0296 15.1826 36.4657C16.0011 38.9018 17.3673 41.1177 19.1762 42.9432C20.9851 44.7687 23.1886 46.155 25.6171 46.9957L23.4691 53.2128Z" fill="#45A7B9"/>
<path d="M33.0144 53.5856C32.7443 53.8977 32.4009 54.1377 32.015 54.2841C31.4813 54.5006 30.9046 54.5897 30.3305 54.5441C29.9445 54.5454 29.5622 54.4683 29.2067 54.3176C28.8513 54.1669 28.5302 53.9457 28.2626 53.6674C28.0018 53.3851 27.8017 53.0523 27.6745 52.6896C27.5473 52.3269 27.4959 51.942 27.5233 51.5586L27.5782 50.0934C27.5746 49.7123 27.6493 49.3346 27.7977 48.9836C27.9461 48.6326 28.165 48.3158 28.4409 48.053C28.7119 47.7969 29.0333 47.6001 29.3847 47.4751C29.736 47.3501 30.1094 47.2997 30.4813 47.327C31.195 47.302 31.8911 47.5521 32.4258 48.0255C32.6455 48.2418 32.8156 48.5031 32.9244 48.7915C33.0331 49.0799 33.078 49.3885 33.0559 49.6959L33.0425 49.7234L31.714 49.6685C31.7173 49.3415 31.6004 49.0247 31.3855 48.7783C31.2489 48.6559 31.0895 48.5616 30.9164 48.5009C30.7433 48.4401 30.56 48.414 30.3768 48.4242C30.1937 48.4343 30.0143 48.4805 29.849 48.56C29.6837 48.6395 29.5357 48.7508 29.4135 48.8876C29.1235 49.2482 28.9685 49.6986 28.9751 50.1612L28.9202 51.6264C28.8829 52.0926 29.0088 52.5573 29.2761 52.9409C29.4015 53.109 29.5649 53.245 29.753 53.3378C29.941 53.4307 30.1483 53.4777 30.358 53.4752C30.6247 53.4922 30.8924 53.4692 31.1523 53.4068C31.3242 53.3661 31.4842 53.2861 31.6198 53.173L31.6608 51.8719L30.4147 51.831L30.4556 50.8584L33.0986 50.9543L33.0144 53.5856Z" fill="#3072AC"/>
<path d="M39.2584 45.5444L40.8196 49.928C40.9513 50.2442 41.0087 50.5865 40.9873 50.9284C40.9659 51.2702 40.8663 51.6027 40.6962 51.9C40.2984 52.5202 39.6908 52.9766 38.9843 53.1859C38.3102 53.4702 37.5556 53.4994 36.8615 53.2683C36.5407 53.1462 36.2525 52.9516 36.0193 52.6998C35.7861 52.4479 35.6143 52.1456 35.5172 51.8164L33.9561 47.4329L35.2846 46.9536L36.8457 51.3372C36.8921 51.5216 36.9788 51.6934 37.0996 51.8402C37.2203 51.9871 37.3722 52.1053 37.5442 52.1864C37.8935 52.3191 38.2801 52.3142 38.626 52.173C38.9868 52.064 39.2943 51.8249 39.4887 51.502C39.5707 51.3284 39.6133 51.1388 39.6133 50.9467C39.6133 50.7547 39.5707 50.5651 39.4887 50.3915L37.9276 46.0079L39.2584 45.5444Z" fill="#3072AC"/>
<path d="M43.955 47.516L45.6395 49.4331L44.5874 50.3642L39.959 45.0922L42.0543 43.2435C42.5457 42.7593 43.2002 42.476 43.8896 42.4492C44.1918 42.4635 44.488 42.5385 44.7606 42.6699C45.0331 42.8012 45.2764 42.9862 45.4758 43.2137C45.6752 43.4413 45.8267 43.7067 45.9212 43.9941C46.0157 44.2815 46.0513 44.585 46.0258 44.8865C45.9058 45.564 45.5402 46.1735 44.9989 46.5984L43.955 47.516ZM43.2432 46.6943L44.2841 45.7766C44.4168 45.6798 44.5263 45.5546 44.6044 45.4101C44.6826 45.2656 44.7275 45.1055 44.7359 44.9414C44.7282 44.6397 44.6141 44.3505 44.4136 44.1249C44.2131 43.8992 43.9393 43.7519 43.6406 43.7088C43.4765 43.7003 43.3125 43.7265 43.1591 43.7855C43.0058 43.8445 42.8665 43.935 42.7504 44.0513L41.7095 44.9689L43.2432 46.6943Z" fill="#3072AC"/>
<path d="M41.4341 36.1502C42.6526 33.652 42.9241 30.7968 42.1982 28.1137C41.4723 25.4307 39.7983 23.1018 37.4865 21.5588C35.1746 20.0158 32.3817 19.3632 29.6255 19.7222C26.8692 20.0811 24.3366 21.4272 22.4971 23.5109L41.4341 36.1502Z" fill="#3072AC"/>
<path d="M22.4834 23.5107C21.9875 24.074 21.5473 24.6839 21.169 25.332L28.7829 42.3671C29.5448 42.5215 30.3201 42.5998 31.0974 42.6009C33.25 42.6016 35.3594 41.9973 37.1851 40.8569C39.0108 39.7165 40.4792 38.0859 41.4228 36.1512L22.4834 23.5107Z" fill="#45A7B9"/>
<path d="M20.3612 27.0298C19.2771 29.8737 19.3662 33.0316 20.6089 35.8099C21.8517 38.5881 24.1465 40.7594 26.9891 41.8468L20.3612 27.0298Z" fill="#F59440"/>
</svg>
